<svg xmlns="http://www.w3.org/2000/svg" width="58.9" height="69.788" viewBox="0 0 58.9 69.788"><defs><style>.a{fill:#170c3a;}</style></defs><g transform="translate(-245 -3011)"><path class="a" d="M63.3,42.7c-1.1-.9-2.3-1.8-3.4-2.7-.5-.4-1-.8-1.6-1.2L54.9,36l1.4-1.1c2.2-1.8,4.6-3.7,6.8-5.5a14.251,14.251,0,0,0,1.2-1.1C66.1,26,65.6,23,63.1,21l-6.3-5.1-3.4-2.8c-1.3-1-2.6-2.1-3.9-3.1-3-2.4-6-4.9-9.1-7.3a6.924,6.924,0,0,0-8.7-.1C22.8,9.8,15.5,15.6,8.8,21a5.361,5.361,0,0,0-2.2,4.2,5.361,5.361,0,0,0,2.2,4.2c.8.6,1.5,1.2,2.3,1.8a17.41,17.41,0,0,1,1.4,1.2c1.2,1,2.4,1.9,3.6,2.9l.9.7c-.8.7-1.7,1.4-2.5,2-1.9,1.5-3.9,3.1-5.8,4.7a5.126,5.126,0,0,0-.1,8.2c.7.6,1.5,1.2,2.3,1.8.3.2.6.5.9.7,1.8,1.4,3.6,2.9,5.3,4.3,4.7,3.8,9.6,7.8,14.5,11.6a6.575,6.575,0,0,0,4.3,1.6,8,8,0,0,0,3.3-.8A11.275,11.275,0,0,0,41,68.9a1.381,1.381,0,0,1,.4-.3l3.5-2.8c6.1-4.9,12.3-9.9,18.5-14.9a5.364,5.364,0,0,0,2.1-4.1A6.017,6.017,0,0,0,63.3,42.7ZM33.5,23.1a13.088,13.088,0,0,0-3.8,2.7,12.667,12.667,0,0,1-1.3,1.1c-1.9,1.5-3.7,3-5.6,4.5-.6.5-1.3,1-1.9,1.5a18.4,18.4,0,0,0-2.2-1.7c-2.3-1.9-4.7-3.8-7-5.7-.3-.2-.3-.3-.3-.3s0-.2.4-.5c4.9-4,9.9-8,14.8-12l3.5-2.8c1.1-.9,2.2-1.8,3.4-2.7ZM11.8,46.4c2.5-2,5.1-4.1,7.6-6.1l1.5-1.2c.8.6,1.6,1.3,2.4,1.9,2.6,2.1,5.3,4.3,8,6.4.5.4,1.1.8,1.7,1.2.2.1.3.2.5.3V64.8C26.3,59,19.1,53.2,11.8,47.3c-.4-.3-.4-.5-.4-.5S11.4,46.7,11.8,46.4ZM60.2,25.5l-3.3,2.7c-.4.4-.9.7-1.3,1.1l-4.5,3.6-4.5-3.6c-.6-.5-1.1-.9-1.7-1.4l-4.5-3.6c-.4-.3-.8-.5-1.2-.8a4.348,4.348,0,0,1-.7-.4h0V7.2l.4.3c1.2.9,2.3,1.8,3.4,2.7,5.9,4.7,11.8,9.5,17.6,14.2l.1.1a1.38,1.38,0,0,0,.4.3c.3.3.3.4.3.4C60.5,25.2,60.5,25.3,60.2,25.5ZM37.4,43.9a2.052,2.052,0,0,1-2.9,0c-2.9-2.4-5.9-4.7-8.8-7.1l-1-.8,8-6.4c.2-.2.4-.3.6-.5A17.1,17.1,0,0,1,34.7,28a2.108,2.108,0,0,1,2.5-.1c2.6,2.1,5.2,4.2,7.8,6.2.8.6,1.5,1.2,2.3,1.8-.3.2-.5.4-.8.6-2.6,2.1-5.3,4.3-7.9,6.4Zm1,5a2.186,2.186,0,0,0,.5-.3,18.758,18.758,0,0,0,1.8-1.2c2.7-2.1,5.4-4.3,8-6.4.8-.6,1.6-1.3,2.4-1.9l1,.8c1.1.9,2.1,1.7,3.2,2.6,1.3,1.1,2.6,2.1,3.9,3.2l.6.5c.5.4.7.6.7.7s-.2.3-.7.7c-6.9,5.5-13.7,11.1-20.6,16.6l-.8.7v-16Z" transform="translate(238.4 3009.888)"/></g></svg>