<svg width="891" height="1011" viewBox="0 0 891 1011" fill="none" xmlns="http://www.w3.org/2000/svg">
<g clip-path="url(#clip0)">
<path d="M343.232 822H354.087C359.685 823.53 363.215 826.774 364.678 831.731C366.142 836.689 362.611 841.445 354.087 846L354 845.983L354.007 846H219.913C211.389 841.445 207.858 836.689 209.322 831.731C210.785 826.774 214.315 823.53 219.913 822H343.232Z" fill="#3ABF7C"/>
<path d="M775.17 772.51H854.272C856.672 772.51 858.772 770.36 858.772 767.78V767.242C858.772 764.662 856.672 762.512 854.072 762.512H780.772C736.372 762.512 691.972 762.512 647.672 762.512H579.672C577.272 762.512 575.172 764.662 575.172 767.242V767.78C575.172 770.36 577.172 772.51 579.672 772.51H676.173L649.572 824.97C630.672 862.38 611.772 899.682 592.772 937.092L561.472 998.797C560.372 1000.95 561.272 1003.74 563.372 1005.03L563.772 1005.25C565.872 1006.43 568.572 1005.78 569.572 1003.74L686.672 772.51H764.672L881.772 1003.74C882.772 1005.78 885.472 1006.54 887.572 1005.25L887.972 1005.03C890.072 1003.74 890.972 1000.95 889.872 998.797L858.572 937.092C839.672 899.682 820.772 862.38 801.772 824.97L775.17 772.51ZM858.472 730.383V667.879C858.472 620.208 858.472 572.647 858.472 525.086V468.285C858.472 459.379 851.756 452.16 843.472 452.16H680.272C671.988 452.16 665.272 459.379 665.272 468.285V730.568C665.272 739.473 671.988 746.693 680.272 746.693C680.277 746.693 680.282 746.693 680.288 746.693L843.488 746.508C851.766 746.499 858.472 739.282 858.472 730.383Z" fill="#D8DEED"/>
<path d="M485.5 997H648.5C650.985 997 653 999.015 653 1001.5C653 1003.99 650.985 1006 648.5 1006H485.5C483.015 1006 481 1003.99 481 1001.5C481 999.015 483.015 997 485.5 997ZM668.5 997H771.5C773.985 997 776 999.015 776 1001.5C776 1003.99 773.985 1006 771.5 1006H668.5C666.015 1006 664 1003.99 664 1001.5C664 999.015 666.015 997 668.5 997Z" fill="#F95E5A"/>
<path d="M770.424 997H668.635L676.797 942.376H749.336L770.424 997ZM651.317 997.991C650.546 997.371 649.566 997 648.5 997H485.5C485.313 997 485.128 997.011 484.947 997.033C484.889 996.572 484.863 996.024 484.874 995.366C484.986 994.668 485 993.868 485.214 993.072C486.498 988.294 488.054 985.12 492.603 982.299C497.153 979.478 501.798 976.959 506.637 974.743C524.487 966.353 530.586 966.46 542.322 958.763C547.179 955.548 551.644 951.825 555.815 947.797C558.596 945.112 564.606 940.75 573.846 934.71L645.454 934.93L651.317 997.991Z" fill="#474961"/>
<path d="M769.587 761.944C769.422 810.873 767.77 875.873 767.2 898.233C767.1 901.347 767.5 909.774 761.5 915.086C759.8 916.644 758.1 917.285 754.9 918.659C752.4 919.758 741.2 923.055 718.8 924.887C717.4 924.979 715.9 925.07 714.4 924.979C691.3 924.154 685.6 922.689 676.7 920.124C670.8 918.475 666.5 913.346 665.9 907.301C663.1 880.646 655.4 808.011 654.8 801.599C654 793.447 653.3 784.196 652.7 773.662L652.382 768.731L624.708 757.633C636.265 802.648 647.477 849.271 657.5 895.623C658 897.894 658.9 903.005 656.3 907.832C651.5 917.012 639 916.539 609.1 920.135C573.9 924.394 559.2 928.842 551.2 919.757C548.5 916.823 547.6 913.794 547.3 912.374C540 875.558 503.8 768.707 489.7 692.046C489.7 691.857 489.6 691.762 489.6 691.573C485.1 666.871 502 643.589 527.1 640.466C535.4 639.425 542.9 638.422 551.2 637.381C553.714 637.082 556.223 636.996 558.705 637.109L682.607 634.923C756.094 634.272 745.975 625.594 768.954 636.35C784.273 643.521 794.703 663.936 800.245 697.595C802.229 723.188 792.01 744.638 769.587 761.944Z" fill="#6554C0"/>
<path opacity="0.176986" d="M769.713 761.847C769.722 759.291 769.726 756.779 769.726 754.319C769.726 735.267 769.826 718.871 770.026 708.338C770.226 700.003 771.726 654.205 752.326 644.679C750.626 643.854 748.926 643.213 745.526 642.022C742.826 641.107 728.826 636.344 710.826 637.076C699.126 637.534 681.526 638.267 667.026 649.717C647.026 665.563 647.526 690.568 647.726 694.599L652.512 768.783L624.853 757.692C617.148 727.679 609.289 698.381 601.526 670.356C596.223 651.283 578.497 638.081 559.052 637.103L682.608 634.923C756.094 634.272 745.975 625.594 768.954 636.35C784.273 643.521 794.704 663.936 800.245 697.595C802.226 723.14 792.048 744.557 769.713 761.847Z" fill="#444444"/>
<path d="M664.324 448.417C665.527 447.889 666.757 447.418 668.014 447.009L689.355 439.76C690.592 439.53 691.823 439.329 693.049 439.157C694.731 437.194 698.157 435.529 704.097 433.673C725.193 426.968 752.119 438.119 761.709 463.107C770.067 484.883 781.169 509.48 780.135 509.803C779.914 509.872 775.069 513.399 768.43 515.583C778.031 552.448 783.204 577.127 783.949 589.618C785.433 614.498 777.209 631.174 749.336 633.287C721.464 635.4 682.67 638.377 678.112 630.127C675.181 624.823 661.406 592.071 636.785 531.873C627.581 534.904 622.774 536.456 622.365 536.529C621.081 536.756 616.712 522.115 613.868 498.964C610.605 472.399 626.44 450.245 652.684 445.712C657.022 444.945 660.902 445.846 664.324 448.417Z" fill="#F95E5A"/>
<path opacity="0.176986" d="M664.387 448.464C638.285 459.479 625.325 497.204 634.017 525.1C634.978 527.387 635.924 529.637 636.855 531.85C627.605 534.896 622.775 536.456 622.365 536.528C621.081 536.756 616.712 522.115 613.868 498.964C610.605 472.399 626.44 450.244 652.684 445.712C657.049 444.94 660.95 445.857 664.387 448.464V448.464Z" fill="#444444"/>
<path d="M621.3 451.57C621.3 451.57 619.4 459.17 629.5 457.07C639.6 454.97 642.5 453.97 642.5 453.97L639.9 447.07L621.3 451.57Z" fill="#482D1F"/>
<path d="M678.401 446.224L697 534.57L701.42 510.586C724.726 515.232 743.693 517.554 758.321 517.554C758.399 517.554 758.478 517.553 758.556 517.553C755.261 530.379 747.451 586.035 735.3 607.57C719.939 634.792 710.975 637.781 688.292 635.557C685.969 635.329 683.779 634.911 681.711 634.304C682.703 634.632 683.725 634.909 684.778 635.133L567.43 636.967L567.42 637L567.064 636.973L566.575 636.981C566.358 636.984 566.146 636.952 565.945 636.89L517.64 633.278C510.154 632.718 503.275 628.949 498.773 622.941L492.456 614.512C491.253 612.906 490.471 611.023 490.183 609.037C489.233 602.478 493.779 596.391 500.338 595.44L515.814 593.197C525.45 591.801 535.238 591.819 544.868 593.251L574.782 597.7C597.269 590.51 627.277 581.066 634.769 579.438L625.465 535.516L636.463 531.124C639.915 539.143 643.164 546.675 646.209 553.72C642.759 520.246 643.147 483.28 638.999 450.442L628.6 450.67C622.4 453.17 609.4 457.37 608 448.47C608 448.47 625.2 441.37 637.3 436.17L638.2 435.37C639 434.67 639.7 434.27 640.7 433.97C640.9 433.87 641.1 433.87 641.3 433.87L641.964 433.773C640.163 433.91 638.899 433.877 638.46 433.828C630.096 433.456 619.844 418.392 614.912 396.439C614.456 394.672 614.299 392.878 614.042 391.094L612.781 373.236C612.433 369.251 613.188 365.27 614.884 361.709C615.049 361.293 615.222 360.977 615.395 360.66C616.005 359.603 616.615 358.546 617.243 357.688C619.654 354.265 622.641 351.695 625.789 349.813C633.281 345.945 642.03 344.979 646.963 345.15C647.669 345.188 649.887 345.296 653.01 345.424C655.96 345.868 658.784 346.023 661.682 345.87C663.285 345.83 664.602 347.12 664.742 348.714L665.977 374.304C665.985 374.493 666.034 374.76 666.123 375.105C676.193 370.938 683.402 373.315 687.751 382.236C694.274 395.617 688.367 392.722 685.467 396.289C683.376 398.78 680.774 400.012 679.024 400.667C678.697 400.737 678.364 400.928 678.07 401.194L685.903 401.27L687.287 406.77L687.798 413.752L692.944 439.301C692.944 439.301 685.685 443.349 678.401 446.224ZM660.911 431.021L660.323 428.15C660.077 428.255 659.827 428.361 659.573 428.468C651.25 432.007 651.73 431.764 651.15 432.016C649.903 432.405 648.689 432.715 647.536 432.962L656.5 431.67L660.911 431.021ZM742.695 942.666H676.981L678.396 920.574C686.472 922.862 692.811 924.204 714.526 924.979C716.026 925.07 717.526 924.979 718.926 924.887C729.614 924.013 737.752 922.805 743.612 921.662L749.336 942.376L742.695 942.666ZM642.592 916.006L645.454 934.93H573.47L578.217 924.205C586.272 923.267 596.385 921.689 609.226 920.135C624.413 918.308 635.112 917.531 642.592 916.006Z" fill="#DB9E75"/>
<path d="M667.022 430.256L663.242 430.786L661.128 431.096C661.057 431.077 660.985 431.056 660.913 431.035L660.321 428.145L671.054 423.518C669.608 426.846 668.264 429.093 667.022 430.256Z" fill="#482D1F"/>
<path d="M621.247 394.278C621.603 396.054 622.255 398.908 621.571 400.273C620.459 402.478 616.554 398.001 616.855 394.562C617.032 393.141 617.677 392.482 618.474 392.413C619.761 392.2 620.935 393 621.247 394.278ZM642.5 390.511C642.856 392.287 643.507 395.141 642.824 396.506C641.712 398.711 637.807 394.235 638.108 390.795C638.285 389.374 638.93 388.716 639.727 388.646C641.013 388.433 642.187 389.234 642.5 390.511Z" fill="#482D1F"/>
<path d="M626.151 394.06L626.126 404.101C626.23 405.333 627.249 406.401 628.422 406.299C629.115 406.294 629.557 406.256 631.329 406.067C632.12 405.982 632.663 405.928 633.304 405.872C633.854 405.824 634.261 405.338 634.213 404.788C634.165 404.238 633.68 403.831 633.13 403.879C632.473 403.937 631.919 403.992 631.116 404.078C629.418 404.259 629.004 404.295 628.325 404.303C628.286 404.303 628.134 404.144 628.122 404.016L628.151 394.065C628.153 393.513 627.706 393.064 627.154 393.063C626.601 393.062 626.153 393.508 626.151 394.06Z" fill="#482D1F"/>
<path d="M635.304 411.519C635.984 411.259 637.616 410.413 637.728 409.4C637.711 409.2 637.784 408.893 637.676 408.802C637.234 408.339 635.974 408.85 634.207 409.306C631.062 410.083 628.373 410.318 628.373 410.318C628.373 410.318 629.417 411.933 629.959 412.388C631.16 413.488 634.243 412.013 635.304 411.519Z" fill="#482D1F"/>
<path d="M659.463 383.114L662.777 381.987C664.67 381.343 665.636 384.184 663.743 384.827L660.428 385.955L657.929 386.804C658.212 387.734 658.403 388.708 658.491 389.715C659.175 397.527 653.396 404.415 645.583 405.098C638.786 405.693 632.689 401.396 630.769 395.123L629.018 395.399L627.572 395.626C627.867 403.149 622.201 409.654 614.62 410.317C606.808 411 599.92 405.221 599.237 397.408C598.553 389.596 604.332 382.708 612.145 382.025C619.152 381.412 625.455 386.007 627.143 392.657L628.552 392.435L629.018 395.399C627.299 394.127 627.294 394.084 627.29 394.041L625.72 392.881L627.143 392.657C627.214 392.935 627.276 393.216 627.33 393.5C627.459 392.988 627.852 392.545 628.552 392.435L630.198 392.176C629.523 384.369 635.3 377.489 643.108 376.806C648.859 376.303 654.109 379.302 656.751 384.036L659.463 383.114ZM626.187 395.844C625.36 395.975 624.587 395.403 624.469 394.575C624.353 393.763 624.91 393.008 625.72 392.881L628.552 392.435L630.198 392.176C630.199 392.181 630.199 392.185 630.2 392.19C630.288 393.205 630.482 394.186 630.769 395.123L629.018 395.399L626.187 395.844ZM629.018 395.399C628.302 395.511 627.784 395.194 627.509 394.728L629.018 395.399ZM645.322 402.11C651.484 401.571 656.042 396.138 655.503 389.976C654.964 383.814 649.531 379.256 643.369 379.795C637.207 380.334 632.649 385.766 633.188 391.928C633.727 398.091 639.16 402.649 645.322 402.11ZM612.406 385.013C606.244 385.553 601.686 390.985 602.225 397.147C602.764 403.309 608.197 407.867 614.359 407.328C620.521 406.789 625.079 401.357 624.54 395.195C624.522 394.987 624.498 394.78 624.469 394.575C623.63 388.708 618.337 384.495 612.406 385.013Z" fill="#482D1F"/>
<path opacity="0.2" d="M684.721 635.133L567.372 636.967L567.362 637L567.006 636.973L566.517 636.981C566.301 636.984 566.088 636.952 565.888 636.89L517.583 633.277C510.096 632.718 503.217 628.949 498.715 622.941L492.399 614.512C491.195 612.906 490.414 611.023 490.126 609.037C489.175 602.478 493.721 596.391 500.28 595.44L515.756 593.197C525.392 591.801 535.18 591.819 544.81 593.251L574.724 597.7C597.211 590.51 627.219 581.066 634.711 579.438L625.408 535.516L636.405 531.124C640.059 539.611 643.485 547.553 646.683 554.949C647.24 559.351 647.886 563.731 648.642 568.085C656.026 607.373 664.584 630.853 684.721 635.133Z" fill="#8C2A00"/>
<path d="M695.962 535.096C695.726 534.302 696.179 533.467 696.974 533.231C697.768 532.996 698.603 533.449 698.838 534.243L708.738 567.643C708.973 568.438 708.52 569.272 707.726 569.508C706.932 569.743 706.097 569.29 705.862 568.496L695.962 535.096ZM758.616 518.778C757.788 518.772 757.121 518.095 757.127 517.267C757.134 516.439 757.81 515.772 758.639 515.778C762.813 515.81 766.731 515.201 770.398 513.955C771.182 513.688 772.034 514.108 772.3 514.892C772.567 515.677 772.147 516.529 771.363 516.795C767.372 518.152 763.121 518.812 758.616 518.778Z" fill="#482D1F"/>
<path d="M675.613 400.305C677.133 399.862 681.631 398.875 684.392 395.479C687.301 392.013 688.732 386.567 686.586 381.535C684.655 376.685 679.516 373.019 674.743 373.537C672.062 373.872 669.984 375.359 669.703 375.584C666.416 378.18 665.101 381.507 665.101 381.507L664.308 383.83C663.912 383.312 663.532 382.826 663.17 382.379C655.517 375.219 651.098 370.251 643.345 363.1C639.448 364.444 614.424 373.351 612.543 372.512C612.544 362.352 616.259 359.081 616.887 358.223C619.298 354.8 622.823 351.478 625.971 349.596C633.463 345.729 642.212 344.763 647.145 344.933C647.851 344.972 650.069 345.079 653.192 345.207C654.098 345.228 655.003 345.25 656.107 345.253C658.715 345.226 660.725 345.251 661.929 345.246C677.158 344.917 682.896 342.809 690.825 346.231C691.287 346.445 691.939 346.752 692.708 347.174C693.234 345.791 693.849 344.504 694.461 343.312C711.227 310.826 731.59 318.18 731.59 318.301C731.59 318.421 747.019 318.421 750.966 334.157C751.36 335.721 754.127 346.766 749.703 355.873C743.77 367.789 726.074 375.125 705.941 370.118C706.189 373.602 705.949 376.456 705.846 377.943C704.747 389.482 698.457 396.758 696.618 399.83C694.166 403.926 691.136 408.048 687.529 412.196C683.031 409.493 679.587 406.339 677.197 402.734C676.681 401.941 676.151 401.128 675.613 400.305Z" fill="#482D1F"/>
<path d="M373.003 738.546C380.192 742.118 382.646 745.654 383.029 748.746C383.59 753.949 382.374 758.13 379.475 765.005C373.865 778.756 369.095 792.692 365.261 807C364.139 806.758 363.019 806.503 361.901 806.235C364.244 815.168 364.162 822 364.162 822C259.095 822 207.437 822 209.19 822C211.818 822 230.818 770.553 297.862 765.324C299.788 765.171 301.659 765.074 303.475 765.029C303.885 763.323 304.589 761.782 305.868 759.453C303.059 752.567 300.896 736.43 300.162 729.71C300.162 729.433 300.256 729.157 300.35 728.881C300.728 728.144 301.765 727.776 302.613 728.144L323.836 738.546C327.46 737.22 331.294 736.015 335.338 734.809C339.168 733.638 342.997 732.641 346.599 731.725L354.196 711.983C354.477 711.227 355.411 710.755 356.158 711.133C356.439 711.227 356.626 711.416 356.812 711.7C360.745 717.248 370.405 731.393 373.003 738.546Z" fill="#FFBB43"/>
<path d="M205.162 815.662C204.371 810.657 206.481 807.612 211.493 806.526C232.165 805.381 250.558 806.916 266.673 811.129C282.789 815.341 292.174 819.019 294.83 822.162H211.493C207.955 822.162 205.162 819.295 205.162 815.662ZM369.336 781.803C371.746 779.01 379.162 767 379.162 767C379.162 767 371.005 791.765 366.092 807.127C366.37 805.824 362.477 816.252 362.014 813.552V813.458C361.365 810.386 358.862 808.152 355.711 807.965C352.745 807.779 349.593 807.686 346.256 807.686C341.992 807.686 337.636 807.965 333.372 808.524L327.162 789.624C333.187 792.696 340.046 793.814 346.72 793.255C349.037 793.069 351.262 792.603 353.486 791.952C359.604 790.183 365.073 786.552 369.336 781.803ZM347.038 758.951C348.354 760.424 350.496 760.934 352.354 760.094C354.045 759.11 354.941 757.207 354.583 755.273C354.433 754.458 354.971 753.676 355.785 753.525C356.6 753.374 357.383 753.913 357.533 754.727C358.129 757.95 356.609 761.134 353.781 762.734L353.677 762.788C351.164 763.962 348.328 763.635 346.179 762.162C345.507 763.772 344.17 765.15 342.368 765.964C338.746 767.34 334.686 765.985 332.859 762.785C332.448 762.066 332.699 761.15 333.418 760.739C334.137 760.328 335.054 760.578 335.464 761.298C336.544 763.189 339.036 764.021 341.216 763.195C342.868 762.447 343.812 760.918 343.642 759.419C343.636 759.409 343.631 759.399 343.626 759.39C343.192 758.635 343.105 757.691 343.192 756.842C343.279 756.182 343.626 755.615 344.06 755.332C344.929 754.672 346.231 755.049 346.752 755.993C347.212 756.901 347.249 758.007 347.038 758.951ZM321.706 758.993C322.76 760.974 321.794 763.805 320.74 763.994C319.949 764.088 318.983 763.05 318.632 762.39C318.192 761.635 318.105 760.691 318.192 759.842C318.28 759.182 318.632 758.615 319.071 758.332C319.949 757.672 321.179 758.049 321.706 758.993ZM366.741 742.993C367.717 744.974 366.83 747.617 365.765 747.994C364.967 748.088 363.991 747.05 363.636 746.39C363.193 745.635 363.104 744.691 363.193 743.842C363.281 743.182 363.636 742.615 364.08 742.332C364.967 741.672 366.209 742.049 366.741 742.993Z" fill="#996C2B"/>
<path d="M303.274 611.002L312.891 572.2H240.701C233.201 572.2 227 566.5 227 559.6V449.7C226.901 442.7 233.001 437 240.601 437H460.301C467.801 437 474.001 442.7 474.001 449.6V559.6C474.001 566.5 467.801 572.2 460.301 572.2H372.326L368.356 611.002H394.403C398.403 611.002 401.503 614.202 401.503 618.102C401.503 622.102 398.303 625.202 394.403 625.202H282.903C278.903 625.202 275.803 622.002 275.803 618.102C275.603 614.202 278.903 611.002 282.903 611.002H303.274Z" fill="#170C3A"/>
<path fill-rule="evenodd" clip-rule="evenodd" d="M375.306 543.918L375.603 611.102H368.433L375.306 543.918Z" fill="white"/>
<g clip-path="url(#clip1)">
<path d="M480.726 611.728C491.603 601.101 513.807 592.771 550.497 613.764C556.092 616.861 554.052 626.596 547.848 626.579L483.924 626.148C479.12 626.18 477.099 615.303 480.726 611.728Z" fill="#170C3A"/>
</g>
<path d="M421.3 386.2H115.7C103.7 386.2 93.8999 377.317 93.8999 366.439V183.962C93.8999 173.084 103.7 164.2 115.7 164.2H421.3C433.3 164.2 443.1 173.084 443.1 183.962V366.348C443.1 377.317 433.3 386.2 421.3 386.2Z" fill="#F2F6FB"/>
<path d="M94 163.005C94 151.957 102.956 143 114.001 143H422.999C434.045 143 443 151.962 443 163.005V186H94V163.005Z" fill="#E1E5F0"/>
<path d="M147.75 267H186.25C189.426 267 192 269.574 192 272.75C192 275.926 189.426 278.5 186.25 278.5H147.75C144.574 278.5 142 275.926 142 272.75C142 269.574 144.574 267 147.75 267ZM147.75 331H186.25C189.426 331 192 333.574 192 336.75C192 339.926 189.426 342.5 186.25 342.5H147.75C144.574 342.5 142 339.926 142 336.75C142 333.574 144.574 331 147.75 331ZM206.75 267H245.25C248.426 267 251 269.574 251 272.75C251 275.926 248.426 278.5 245.25 278.5H206.75C203.574 278.5 201 275.926 201 272.75C201 269.574 203.574 267 206.75 267ZM206.75 331H245.25C248.426 331 251 333.574 251 336.75C251 339.926 248.426 342.5 245.25 342.5H206.75C203.574 342.5 201 339.926 201 336.75C201 333.574 203.574 331 206.75 331ZM265.75 267H304.25C307.426 267 310 269.574 310 272.75C310 275.926 307.426 278.5 304.25 278.5H265.75C262.574 278.5 260 275.926 260 272.75C260 269.574 262.574 267 265.75 267ZM265.75 331H304.25C307.426 331 310 333.574 310 336.75C310 339.926 307.426 342.5 304.25 342.5H265.75C262.574 342.5 260 339.926 260 336.75C260 333.574 262.574 331 265.75 331ZM147.75 235H219.25C222.426 235 225 237.574 225 240.75C225 243.926 222.426 246.5 219.25 246.5H147.75C144.574 246.5 142 243.926 142 240.75C142 237.574 144.574 235 147.75 235ZM309.75 235H390.25C393.426 235 396 237.574 396 240.75C396 243.926 393.426 246.5 390.25 246.5H309.75C306.574 246.5 304 243.926 304 240.75C304 237.574 306.574 235 309.75 235ZM309.75 299H390.25C393.426 299 396 301.574 396 304.75C396 307.926 393.426 310.5 390.25 310.5H309.75C306.574 310.5 304 307.926 304 304.75C304 301.574 306.574 299 309.75 299ZM239.75 299H254.25C257.426 299 260 301.574 260 304.75C260 307.926 257.426 310.5 254.25 310.5H239.75C236.574 310.5 234 307.926 234 304.75C234 301.574 236.574 299 239.75 299ZM274.75 235H289.25C292.426 235 295 237.574 295 240.75C295 243.926 292.426 246.5 289.25 246.5H274.75C271.574 246.5 269 243.926 269 240.75C269 237.574 271.574 235 274.75 235ZM324.75 267H390.25C393.426 267 396 269.574 396 272.75C396 275.926 393.426 278.5 390.25 278.5H324.75C321.574 278.5 319 275.926 319 272.75C319 269.574 321.574 267 324.75 267Z" fill="#E1E5F0"/>
<path d="M147.75 299H219.25C222.426 299 225 301.574 225 304.75C225 307.926 222.426 310.5 219.25 310.5H147.75C144.574 310.5 142 307.926 142 304.75C142 301.574 144.574 299 147.75 299ZM274.75 299H289.25C292.426 299 295 301.574 295 304.75C295 307.926 292.426 310.5 289.25 310.5H274.75C271.574 310.5 269 307.926 269 304.75C269 301.574 271.574 299 274.75 299Z" fill="#A339FF"/>
<path d="M239.75 235H254.25C257.426 235 260 237.574 260 240.75C260 243.926 257.426 246.5 254.25 246.5H239.75C236.574 246.5 234 243.926 234 240.75C234 237.574 236.574 235 239.75 235ZM324.75 331H390.25C393.426 331 396 333.574 396 336.75C396 339.926 393.426 342.5 390.25 342.5H324.75C321.574 342.5 319 339.926 319 336.75C319 333.574 321.574 331 324.75 331Z" fill="#FF5645"/>
<path d="M145 112H20C8.9543 112 0 120.954 0 132V195C0 206.046 8.9543 215 20 215H145C156.046 215 165 206.046 165 195V132C165 120.954 156.046 112 145 112Z" fill="#3ABF7C"/>
<path fill-rule="evenodd" clip-rule="evenodd" d="M57.235 136.866C58.9661 139.017 58.6253 142.165 56.4739 143.896L28.9605 166.033L57.4024 181.615C59.8242 182.942 60.7119 185.981 59.3851 188.403C58.0583 190.824 55.0195 191.712 52.5977 190.385L17.5977 171.21C16.1336 170.408 15.1665 168.928 15.0195 167.266C14.8725 165.603 15.565 163.976 16.8656 162.93L50.2051 136.105C52.3565 134.374 55.504 134.714 57.235 136.866Z" fill="white"/>
<path fill-rule="evenodd" clip-rule="evenodd" d="M102.824 137.25C104.343 134.944 107.444 134.305 109.75 135.824L144.75 158.874C146.141 159.79 146.984 161.338 147 163.003C147.016 164.668 146.201 166.231 144.828 167.173L111.367 190.123C109.089 191.685 105.977 191.105 104.415 188.828C102.853 186.551 103.433 183.439 105.71 181.877L133.037 163.134L104.25 144.176C101.944 142.657 101.305 139.556 102.824 137.25Z" fill="white"/>
<path fill-rule="evenodd" clip-rule="evenodd" d="M89.3408 125.499C92.0336 126.111 93.7203 128.79 93.1082 131.482L77.8757 198.493C77.2636 201.186 74.5846 202.873 71.8918 202.26C69.1991 201.648 67.5124 198.969 68.1245 196.277L83.3569 129.266C83.969 126.573 86.6481 124.886 89.3408 125.499Z" fill="white"/>
<path d="M873.815 0H505.414C496.901 0 490 6.90563 490 15.4242V284.576C490 293.094 496.901 300 505.414 300H873.815C882.328 300 889.229 293.094 889.229 284.576V15.4242C889.229 6.90563 882.328 0 873.815 0Z" fill="#F2F6FB"/>
<path d="M550.027 276.659C530.07 276.659 513.892 260.304 513.892 240.129C513.892 219.954 530.07 203.599 550.027 203.599C569.983 203.599 586.161 219.954 586.161 240.129C586.161 260.304 569.983 276.659 550.027 276.659ZM550.106 239.976C552.772 239.976 554.934 237.819 554.934 235.158C554.934 232.497 552.772 230.34 550.106 230.34C547.439 230.34 545.278 232.497 545.278 235.158C545.278 237.819 547.439 239.976 550.106 239.976ZM550.106 242.385C545.273 242.385 541.355 246.295 541.355 251.118H558.856C558.856 246.295 554.938 242.385 550.106 242.385Z" fill="#D8DEED"/>
<path d="M513.892 64.7867C513.892 63.0801 515.267 61.6967 516.974 61.6967H772.104C773.806 61.6967 775.186 63.0777 775.186 64.7867V175.257C775.186 176.964 773.812 178.347 772.104 178.347H516.974C515.272 178.347 513.892 176.966 513.892 175.257V64.7867ZM610.54 233.325H813.037C816.188 233.325 818.741 235.88 818.741 239.033V242.113C818.741 245.265 816.188 247.821 813.037 247.821H610.54C607.39 247.821 604.836 245.265 604.836 242.113V239.033C604.836 235.88 607.39 233.325 610.54 233.325ZM610.54 256.881H849.292C852.443 256.881 854.996 259.436 854.996 262.589V265.669C854.996 268.821 852.443 271.377 849.292 271.377H610.54C607.39 271.377 604.836 268.821 604.836 265.669V262.589C604.836 259.436 607.39 256.881 610.54 256.881ZM610.54 209.769H762.28C765.43 209.769 767.984 212.324 767.984 215.476V218.557C767.984 221.709 765.43 224.265 762.28 224.265H610.54C607.39 224.265 604.836 221.709 604.836 218.557V215.476C604.836 212.324 607.39 209.769 610.54 209.769ZM490 15.4276C490 6.90715 496.901 0 505.42 0H874.58C883.096 0 890 6.90778 890 15.4276V33.9332H490V15.4276Z" fill="#E1E5F0"/>
<path d="M806.061 152.83H853.183C855.828 152.83 858.115 153.367 859.999 154.375C861.883 155.383 863.362 156.863 864.369 158.748C865.377 160.633 865.913 162.921 865.913 165.568V165.609C865.913 168.256 865.377 170.544 864.369 172.429C863.362 174.315 861.883 175.794 859.999 176.802C858.115 177.811 855.828 178.347 853.183 178.347H806.061C803.416 178.347 801.13 177.811 799.246 176.802C797.362 175.794 795.883 174.315 794.876 172.429C793.868 170.544 793.332 168.256 793.332 165.609V165.568C793.332 162.921 793.868 160.633 794.876 158.748C795.883 156.863 797.362 155.383 799.246 154.375C801.13 153.367 803.416 152.83 806.061 152.83Z" fill="#A339FF"/>
<path d="M512.736 24.6788C516.78 24.6788 520.058 21.3987 520.058 17.3524C520.058 13.3061 516.78 10.0259 512.736 10.0259C508.692 10.0259 505.414 13.3061 505.414 17.3524C505.414 21.3987 508.692 24.6788 512.736 24.6788Z" fill="#FF5645"/>
<path d="M536.628 24.6788C540.672 24.6788 543.95 21.3987 543.95 17.3524C543.95 13.3061 540.672 10.0259 536.628 10.0259C532.584 10.0259 529.306 13.3061 529.306 17.3524C529.306 21.3987 532.584 24.6788 536.628 24.6788Z" fill="#FFCB3D"/>
<path d="M561.291 24.6788C565.335 24.6788 568.613 21.3987 568.613 17.3524C568.613 13.3061 565.335 10.0259 561.291 10.0259C557.247 10.0259 553.969 13.3061 553.969 17.3524C553.969 21.3987 557.247 24.6788 561.291 24.6788Z" fill="#3ABF7C"/>
<path d="M183 846.018C183.165 846.006 183.332 846 183.5 846H382.5C386.366 846 389.5 849.134 389.5 853C389.5 856.866 386.366 860 382.5 860H183.5C183.332 860 183.165 859.994 183 859.982V998.5C183 1002.37 179.866 1005.5 176 1005.5C172.134 1005.5 169 1002.37 169 998.5L169 633.5C169 630.131 171.379 627.319 174.549 626.651C175.446 626.233 176.446 626 177.5 626H772.5C776.366 626 779.5 629.134 779.5 633C779.5 636.866 776.366 640 772.5 640H183V846.018Z" fill="#D8DEED"/>
</g>
<defs>
<clipPath id="clip0">
<rect width="891" height="1011" fill="white"/>
</clipPath>
<clipPath id="clip1">
<rect width="103" height="83" fill="white" transform="translate(465 543)"/>
</clipPath>
</defs>
</svg>
